<svg width="157" height="64" viewBox="0 0 157 64" fill="none" xmlns="http://www.w3.org/2000/svg">
<g filter="url(#filter0_d_4904_1591)">
<path d="M10.5303 0.46967C10.2374 0.176777 9.76256 0.176777 9.46967 0.46967L4.6967 5.24264C4.40381 5.53553 4.40381 6.01041 4.6967 6.3033C4.98959 6.59619 5.46447 6.59619 5.75736 6.3033L10 2.06066L14.2426 6.3033C14.5355 6.59619 15.0104 6.59619 15.3033 6.3033C15.5962 6.01041 15.5962 5.53553 15.3033 5.24264L10.5303 0.46967ZM153 54.25H22V55.75H153V54.25ZM10.75 43V1H9.25V43H10.75ZM22 54.25C15.7868 54.25 10.75 49.2132 10.75 43H9.25C9.25 50.0416 14.9584 55.75 22 55.75V54.25Z" fill="url(#paint0_linear_4904_1591)"/>
</g>
<defs>
<filter id="filter0_d_4904_1591" x="0.476562" y="0.25" width="156.523" height="63.5" filterUnits="userSpaceOnUse" color-interpolation-filters="sRGB">
<feFlood flood-opacity="0" result="BackgroundImageFix"/>
<feColorMatrix in="SourceAlpha" type="matrix" values="0 0 0 0 0 0 0 0 0 0 0 0 0 0 0 0 0 0 127 0" result="hardAlpha"/>
<feOffset dy="4"/>
<feGaussianBlur stdDeviation="2"/>
<feComposite in2="hardAlpha" operator="out"/>
<feColorMatrix type="matrix" values="0 0 0 0 0 0 0 0 0 0 0 0 0 0 0 0 0 0 0.25 0"/>
<feBlend mode="normal" in2="BackgroundImageFix" result="effect1_dropShadow_4904_1591"/>
<feBlend mode="normal" in="SourceGraphic" in2="effect1_dropShadow_4904_1591" result="shape"/>
</filter>
<linearGradient id="paint0_linear_4904_1591" x1="10" y1="6" x2="153" y2="55" gradientUnits="userSpaceOnUse">
<stop stop-color="#1D63FF"/>
<stop offset="1" stop-color="#1D63FF" stop-opacity="0"/>
</linearGradient>
</defs>
</svg>
