<svg width="32" height="31" viewBox="0 0 32 31" fill="none" xmlns="http://www.w3.org/2000/svg">
<path opacity="0.5" d="M17.5001 2.99976H14.5001C7.04421 2.99976 1 9.04397 1 16.4999V23.9999C1 27.3137 3.68632 30 7.00005 30H17.5001C24.9561 30 31.0003 23.9558 31.0003 16.4999C31.0003 9.04397 24.9561 2.99976 17.5001 2.99976Z" stroke="#1D63FF" stroke-width="2" stroke-linecap="round" stroke-linejoin="round"/>
<path d="M31.0002 6.00005C31.0002 9.31379 28.3139 12.0001 25.0001 12.0001C21.6864 12.0001 19.0001 9.31379 19.0001 6.00005C19.0001 2.68632 21.6864 0 25.0001 0C28.3139 0 31.0002 2.68632 31.0002 6.00005Z" fill="#1D63FF"/>
<path fill-rule="evenodd" clip-rule="evenodd" d="M8.875 13.5001C8.875 12.8788 9.37868 12.3751 10 12.3751H16.0001C16.6214 12.3751 17.1251 12.8788 17.1251 13.5001C17.1251 14.1214 16.6214 14.6251 16.0001 14.6251H10C9.37868 14.6251 8.875 14.1214 8.875 13.5001ZM8.875 19.5002C8.875 18.8789 9.37868 18.3752 10 18.3752H22.0001C22.6214 18.3752 23.1251 18.8789 23.1251 19.5002C23.1251 20.1215 22.6214 20.6252 22.0001 20.6252H10C9.37868 20.6252 8.875 20.1215 8.875 19.5002Z" fill="#1D63FF"/>
</svg>
