<svg width="37" height="30" viewBox="0 0 37 30" fill="none" xmlns="http://www.w3.org/2000/svg">
<path opacity="0.5" fill-rule="evenodd" clip-rule="evenodd" d="M4.51968 9.37472C6.74392 3.87991 12.1317 0 18.4289 0C25.8875 0 32.0746 5.44377 33.2338 12.5748L34.8003 11.4C35.3683 10.974 36.1742 11.0891 36.6003 11.6571C37.0263 12.2252 36.9112 13.0311 36.3431 13.4571L34.6097 14.7572C33.1812 15.8286 31.27 16.0009 29.6729 15.2023L28.1396 14.4357C27.5045 14.1181 27.247 13.3458 27.5646 12.7107C27.8821 12.0756 28.6544 11.8182 29.2896 12.1357L30.6677 12.8248C29.6391 6.99783 24.5509 2.57143 18.4289 2.57143C13.2149 2.57143 8.74793 5.78239 6.90323 10.3396C6.6368 10.9978 5.88723 11.3154 5.22903 11.0489C4.57083 10.7825 4.25324 10.0329 4.51968 9.37472ZM3.56394 17.0218C3.50666 17.0445 3.45005 17.0697 3.39429 17.0976L1.86099 17.8643C1.22587 18.1818 0.453576 17.9244 0.136018 17.2893C-0.18154 16.6542 0.0758915 15.8819 0.711007 15.5643L2.24431 14.7977C3.84144 13.9991 5.75266 14.1714 7.18117 15.2428L8.91457 16.5429C9.48263 16.9689 9.59776 17.7748 9.17171 18.3429C8.74566 18.9109 7.93977 19.026 7.37171 18.6L6.31946 17.8108C7.59336 23.3211 12.5314 27.4286 18.4289 27.4286C23.6428 27.4286 28.1098 24.2176 29.9545 19.6604C30.2209 19.0022 30.9705 18.6846 31.6287 18.9511C32.2869 19.2175 32.6045 19.9671 32.338 20.6253C30.1138 26.1201 24.726 30 18.4289 30C10.8302 30 4.55124 24.3499 3.56394 17.0218Z" fill="#1D63FF"/>
<path fill-rule="evenodd" clip-rule="evenodd" d="M18.4291 4.2854C19.1392 4.2854 19.7148 4.86103 19.7148 5.57111V7.03429C21.6936 7.59394 23.1434 9.41321 23.1434 11.5711C23.1434 12.2812 22.5678 12.8568 21.8577 12.8568C21.1476 12.8568 20.572 12.2812 20.572 11.5711C20.572 10.3876 19.6126 9.42826 18.4291 9.42826C17.2457 9.42826 16.2863 10.3876 16.2863 11.5711C16.2863 12.7546 17.2457 13.714 18.4291 13.714C21.0328 13.714 23.1434 15.8246 23.1434 18.4283C23.1434 20.5862 21.6936 22.4054 19.7148 22.9651V24.4283C19.7148 25.1383 19.1392 25.714 18.4291 25.714C17.719 25.714 17.1434 25.1383 17.1434 24.4283V22.9651C15.1647 22.4054 13.7148 20.5862 13.7148 18.4283C13.7148 17.7182 14.2905 17.1425 15.0006 17.1425C15.7106 17.1425 16.2863 17.7182 16.2863 18.4283C16.2863 19.6117 17.2457 20.5711 18.4291 20.5711C19.6126 20.5711 20.572 19.6117 20.572 18.4283C20.572 17.2448 19.6126 16.2854 18.4291 16.2854C15.8255 16.2854 13.7148 14.1747 13.7148 11.5711C13.7148 9.41321 15.1647 7.59394 17.1434 7.03429V5.57111C17.1434 4.86103 17.719 4.2854 18.4291 4.2854Z" fill="#1D63FF"/>
</svg>
